<svg enable-background="new 0 0 76 76" viewBox="0 0 76 76" xmlns="http://www.w3.org/2000/svg"><g fill="#26e8ed"><path d="m63.9 9.2c-1-1.6-3.1-2.1-4.7-1l-57.6 36.2c-.9.5-1.4 1.6-1.6 2.6v.5c0 .5.2 1 .5 1.6l11.6 18.1c1 1.6 3.1 2.1 4.7 1l57.6-36.2c1.6-1 2.1-3.1 1-4.7zm9.3 20.9-57.7 36.2c-.5.4-1.2.2-1.5-.3l-11.4-18.1c-.2-.2-.2-.5-.2-.9 0-.3.2-.5.5-.7l57.5-36.3c.3-.2.5-.2.9-.2.3 0 .5.2.7.5l11.6 18.1c.1.6.1 1.3-.4 1.7zm-57.5-2.1 1.9 1.6v-2.4l2.1-1.4-2.4-.7-.5-2.6-1.4 2.1h-2.4l1.4 2.1-.9 2.3zm44.9 20.2-2.1-1.6v2.4l-2.1 1.4 2.4.7.7 2.4 1.4-2.1h2.4l-1.3-2 .9-2.4zm-37.1-29.7 1 2.2 1.2-2.1 2.4-.2-1.7-1.9.5-2.4-2.2 1-2.1-1.4.3 2.4-1.9 1.6zm14.3 46.1 1.2 2.2 1-2.2 2.4-.3-1.9-1.7.3-2.4-2.1 1.2-2.2-1 .5 2.4-1.7 1.7zm.4-52.8-1.2-2.3-1 2.2-2.4.5 1.9 1.7-.3 2.4 2.1-1.2 2.2 1-.5-2.4 1.7-1.7zm14.3 46.3-1-2.2-1.2 2.1-2.4.2 1.7 1.9-.6 2.3 2.2-1 2.1 1.4-.3-2.5 1.9-1.6z"/><path d="m54 9c-2.8-1.6-5.9-2.8-9-3.5-8.5-1.7-17.4-.3-24.9 4.5-3.8 2.4-7.1 5.5-9.5 9.2-2.4 3.5-4.1 7.4-5.2 11.6-.7 3.1-1 6.2-.7 9.5l2.2-1.4c-.3-10.4 4.8-20.7 14.3-26.8 9.5-6.2 21.1-6.4 30.4-1.7zm-32.4 57.9c2.8 1.6 5.9 2.8 9 3.5 4.1 1 8.5 1 12.8.3 4.4-.7 8.6-2.5 12.4-4.7 3.8-2.4 7.1-5.5 9.5-9.2 4.3-6.2 6.4-13.6 5.9-21.1l-2.2 1.4c.3 10.9-5.2 21.1-14.3 26.8-9.5 6-21.1 6.2-30.6 1.4z"/><path d="m47.7 53.2c-2.6 1.6-5.5 2.6-8.6 2.8l-3.5 2.2c4.7.5 9.3-.5 13.3-3.1 4-2.4 6.9-6.2 8.5-10.7l-3.5 2.2c-1.6 2.8-3.7 4.9-6.2 6.6zm-19.6-30.4c2.6-1.6 5.5-2.6 8.6-2.8l3.5-2.2c-4.7-.5-9.3.5-13.3 3.1-4 2.4-6.9 6.2-8.5 10.7l3.5-2.2c1.6-2.8 3.8-5 6.2-6.6z"/><g enable-background="new"><path d="m24.3 52.7.7-.3c.2-.2.3-.3.2-.5l-3.3-5.4c-.2-.2-.2-.2-.3-.3l-.4-.2c-.5-.2-.5-.5 0-.9l2.4-1.6c.3-.2.7-.2.9.2l3.8 6c.2.2.3.3.5.2l1.2-.7c.2-.2.3-.3.2-.5l-5-7.9c-.2-.2-.3-.3-.5-.2l-4.8 2.9c-.3.2-.7.2-.9-.2l-.3-.7c-.2-.3-.2-.7.2-.9l12.3-7.6c.3-.2.7-.2.9.2l.3.7c.2.3.2.7-.2.9l-3.5 2.2c-.2.2-.3.3-.2.5l1.4 2.1c.2.2.3.3.5.2l3.1-1.9c.3-.2.7-.2.9.2l.2.5c.2.3.2.7-.2.9l-3.3 1.9c-.2.2-.3.3-.2.5l2.2 3.5c.2.2.3.3.5.2l4.1-2.6c.3-.2.7-.2.9.2l.3.7c.2.3.2.7-.2.9l-13.6 8.5c-.3.2-.7.2-.9-.2l-.2-.6c-.2-.4 0-.7.3-.9z"/><path d="m35.7 31.1 4.3-2.8c.3-.2.7-.2.9.2l.5.9c.2.3.2.7-.2.9l-1 .7c-.2.2-.2.3-.2.5l.5 1.7c.2.3.3.3.5.2l1.4-.9c.3-.2.7-.2.9.2l4.3 6.9c.2.3.2.7-.2.9l-3.8 2.4c-.3.1-.6.1-.8-.2l-2.2-3.6c-.2-.2-.3-.3-.3-.2-.3.2-.7.2-.9-.3l-1.9-5.4c-.2-.2-.4-.4-.5-.2h-.2c-.3.2-.7.2-.9-.2l-.5-.7c0-.5 0-.8.3-1zm7.8-1 4-2.4c.2-.2.3-.3.2-.5l-.2-.3c-.2-.3-.3-.3-.5-.2l-1.6 1c-.2.2-.3.2-.3.3 0 .3 0 .7-.3.9l-1.7 1c-.3.2-.7.2-.9-.3l-.2-1.6c0-.2-.2-.3-.2-.3-.5-.2-.5-.5 0-.9l2.2-1.4c.3-.2.7-.2.7 0 0 .3.2.3.5.2l3.6-2.2c.3-.2.7-.2.9.2l.7 1.2c.2.2.2.3.3.5 0 .2.2.2.5.2.2 0 .3.2.5.3l4.8 7.8c.3.7.3 1.4 0 1.6l-1.7 1c-.3.3-.7.2-.7-.2v-.3c0-.2 0-.3-.2-.5l-.5-.9c-.2-.2-.3-.3-.5-.2-.2.2-.2.3-.2.5l1 1.6c.2.3.2.7-.2.9l-1.2.7c-.3.2-.7.2-.9-.2l-1-1.6c-.2-.2-.3-.3-.5-.2h-.2c-.2.2-.3.3-.2.5l.9 1.7c.2.3.2.7-.2.9l-1.2.9c-.3.2-.7.2-.9-.2l-4.8-8.6c-.1-.4-.1-.6.2-.9zm1.2 9.8c.2-.2.2-.3.2-.5l-2.4-3.8c-.2-.2-.3-.3-.5-.2s-.2.3-.2.5l2.4 3.8c0 .2.2.4.5.2zm1.8-8.8.2.3c.2.2.3.3.5.2.2-.2.2-.3.2-.5l-.2-.3c-.2-.2-.3-.3-.5-.2-.2 0-.2.2-.2.5zm1.5 2.8.2.3c.2.2.3.3.5.2.2-.2.3-.3.2-.5l-.2-.3c-.2-.2-.3-.3-.5-.2-.2 0-.2.1-.2.5zm1.6-5.2c-.2.2-.2.3-.2.5l.2.3c.2.2.3.3.5.2.2-.2.2-.3.2-.5l-.2-.3c-.2-.2-.4-.4-.5-.2zm1.5 3.3.2.3c.2.2.3.3.5.2.2-.2.2-.3.2-.5l-.2-.5c-.2-.2-.3-.3-.5-.2s-.4.5-.2.7z"/></g></g></svg>