<svg enable-background="new 0 0 36 36" viewBox="0 0 36 36" xmlns="http://www.w3.org/2000/svg"><path d="m24.1 22.8-6.3 3.9c-2.6-1.6-6.2-3.9-6.2-3.9l-8.6 8.4 5.2.1.1 4.1 8.3-8.3c1.2 1.1 2.6 0 2.6.1l8.6 8.7.1-4.6 4.9-.1c.2 0-8.7-8.4-8.7-8.4z" fill="#40c97f"/><path d="m22.8 27.3 2.8.5h.3c.4 0 .7-.1 1-.3.4-.3.7-.7.7-1.3l.4-2.7c.1-.6.5-1.1 1-1.3l2.5-1.2c.4-.2.7-.6.9-1 .1-.2.1-.4.1-.6 0-.3-.1-.6-.2-.8l-1.3-2.6c-.1-.2-.2-.5-.2-.8s.1-.6.2-.8l1.3-2.5c.1-.2.2-.5.2-.8 0-.2 0-.4-.1-.6-.1-.4-.5-.8-.9-1l-2.5-1.3c-.5-.3-.9-.8-1-1.4l-.4-2.7c-.1-.5-.4-1-.8-1.2-.2-.2-.6-.3-1-.3-.1 0-.2 0-.3 0l-2.7.4c-.1 0-.2 0-.3 0-.5 0-.9-.2-1.2-.5l-2-2c-.4-.3-.8-.5-1.3-.5s-.9.2-1.3.5l-2 2c-.3.3-.8.5-1.2.5-.1 0-.2 0-.3 0l-2.8-.5c-.1 0-.2 0-.3 0-.4 0-.7.1-1 .3-.4.4-.7.9-.7 1.4l-.5 2.7c0 .6-.4 1.1-1 1.3l-2.4 1.2c-.5.3-.8.6-.9 1.1-.1.2-.1.4-.1.6 0 .3.1.6.2.8l1.3 2.5c.1.2.2.5.2.8s-.1.6-.2.8l-1.3 2.5c-.1.2-.2.5-.2.8 0 .2 0 .4.1.6.1.4.5.8.9 1l2.5 1.3c.5.3.9.8 1 1.4l.4 2.7c.1.5.4 1 .8 1.2.2.2.6.3 1 .3h.3l2.8-.5h.3c.5 0 .9.2 1.2.5l2 2c.3.3.8.5 1.3.5s.9-.2 1.3-.5l2-2c.3-.3.8-.5 1.2-.5z" fill="#e09450"/><path d="m18 25.4c-5.8 0-10.5-4.7-10.5-10.5s4.7-10.5 10.5-10.5 10.5 4.7 10.5 10.5-4.7 10.5-10.5 10.5z" fill="#bc560f"/><path d="m18 23.2c-4.6 0-8.3-3.7-8.3-8.3s3.7-8.3 8.3-8.3 8.3 3.7 8.3 8.3-3.7 8.3-8.3 8.3z" fill="#e09450"/><path d="m15.9 19.3c-.5-.4-.8-1.1-.8-1.9v-.3h1.7v.2c0 .3.1.6.3.8s.5.3.8.3c.4 0 .6-.1.8-.3s.3-.5.3-.9v-.3c0-.4-.1-.8-.3-1s-.5-.3-1-.3h-.5v-1.6h.5c.4 0 .6-.1.8-.3s.3-.5.3-.9v-.2c0-.4-.1-.6-.3-.8s-.4-.3-.8-.3c-.3 0-.6.1-.8.3s-.3.4-.3.8v.2h-1.7v-.2c0-.8.2-1.5.7-1.9s1.2-.7 2.1-.7 1.5.2 2 .7.7 1.1.7 1.9v.2c0 .4-.1.8-.3 1.1s-.5.6-.9.8c.4.2.8.5 1 .9s.3.9.3 1.4v.3c0 .6-.1 1.1-.4 1.5-.2.4-.6.8-1 1 0 .1-.5.2-1.1.2-.9 0-1.6-.2-2.1-.7z" fill="#a4f7c6"/></svg>