<?xml version="1.0" encoding="utf-8"?>
<!-- Generator: Adobe Illustrator 25.2.1, SVG Export Plug-In . SVG Version: 6.00 Build 0)  -->
<svg version="1.1" id="图层_1" xmlns="http://www.w3.org/2000/svg" xmlns:xlink="http://www.w3.org/1999/xlink" x="0px" y="0px"
	 viewBox="0 0 18 18" style="enable-background:new 0 0 18 18;" xml:space="preserve">
<style type="text/css">
	.st0{fill:#35CCEA;}
</style>
<g>
	<path class="st0" d="M13.5,1c0.5,0,0.9,0.4,1,0.9v1.3C15.9,3.6,17,4.9,17,6.4c0,1.7-1.3,3.1-2.9,3.2c-0.8,1.8-2.4,3.1-4.4,3.3v2.6
		h2c0.4,0,0.7,0.3,0.7,0.7c0,0.4-0.3,0.7-0.7,0.7H6.4c-0.4,0-0.7-0.3-0.7-0.7c0-0.4,0.3-0.7,0.7-0.7h2v-2.7C6.5,12.6,5,11.4,4.2,9.7
		L4.1,9.6C2.4,9.6,1,8.1,1,6.4c0-1.5,1.1-2.8,2.5-3.2h0.1V2c0-0.6,0.4-1,0.9-1L13.5,1z M9.4,4C9.2,3.5,8.9,3.5,8.7,3.9V4L8.1,5.3
		L6.7,5.5C6.2,5.6,6.1,5.9,6.4,6.2l0.1,0.1l1,1.1L7.3,8.9C7.2,9.4,7.4,9.7,7.8,9.4h0.1l1.2-0.7l1.2,0.7C10.8,9.7,11,9.5,11,9V8.9
		l-0.2-1.5l1-1.1c0.4-0.4,0.2-0.7-0.2-0.8h-0.1L10,5.4L9.4,4z M3.6,4.6C2.9,4.9,2.4,5.5,2.4,6.4c0,0.8,0.5,1.5,1.3,1.7
		c0-0.1,0-0.3-0.1-0.4V4.6z M14.5,4.8v3.3c0.7-0.3,1.1-0.9,1.1-1.7s-0.4-1.3-0.9-1.6L14.5,4.8z"/>
</g>
</svg>
