<svg enable-background="new 0 0 36 36" viewBox="0 0 36 36" xmlns="http://www.w3.org/2000/svg"><path d="m24.1 22.8-6.3 3.9c-2.6-1.6-6.2-3.9-6.2-3.9l-8.6 8.4 5.2.1.1 4.1 8.3-8.3c1.2 1.1 2.6 0 2.6.1l8.6 8.7.1-4.6 4.9-.1c.2 0-8.7-8.4-8.7-8.4z" fill="#197aff"/><path d="m22.8 27.3 2.8.5h.3c.4 0 .7-.1 1-.3.4-.3.7-.7.7-1.3l.4-2.7c.1-.6.5-1.1 1-1.3l2.5-1.2c.4-.2.7-.6.9-1 .1-.2.1-.4.1-.6 0-.3-.1-.6-.2-.8l-1.3-2.6c-.1-.2-.2-.5-.2-.8s.1-.6.2-.8l1.3-2.5c.1-.2.2-.5.2-.8 0-.2 0-.4-.1-.6-.1-.4-.5-.8-.9-1l-2.5-1.3c-.5-.3-.9-.8-1-1.4l-.4-2.7c-.1-.5-.4-1-.8-1.2-.2-.2-.6-.3-1-.3-.1 0-.2 0-.3 0l-2.7.4c-.1 0-.2 0-.3 0-.5 0-.9-.2-1.2-.5l-2-2c-.4-.3-.8-.5-1.3-.5s-.9.2-1.3.5l-2 2c-.3.3-.8.5-1.2.5-.1 0-.2 0-.3 0l-2.8-.5c-.1 0-.2 0-.3 0-.4 0-.7.1-1 .3-.4.4-.7.9-.7 1.4l-.5 2.7c0 .6-.4 1.1-1 1.3l-2.4 1.2c-.5.3-.8.6-.9 1.1-.1.2-.1.4-.1.6 0 .3.1.6.2.8l1.3 2.5c.1.2.2.5.2.8s-.1.6-.2.8l-1.3 2.5c-.1.2-.2.5-.2.8 0 .2 0 .4.1.6.1.4.5.8.9 1l2.5 1.3c.5.3.9.8 1 1.4l.4 2.7c.1.5.4 1 .8 1.2.2.2.6.3 1 .3h.3l2.8-.5h.3c.5 0 .9.2 1.2.5l2 2c.3.3.8.5 1.3.5s.9-.2 1.3-.5l2-2c.3-.3.8-.5 1.2-.5z" fill="#d6d8da"/><path d="m18 25.4c-5.8 0-10.5-4.7-10.5-10.5s4.7-10.5 10.5-10.5 10.5 4.7 10.5 10.5-4.7 10.5-10.5 10.5z" fill="#9ea0a3"/><path d="m18 23.2c-4.6 0-8.3-3.7-8.3-8.3s3.7-8.3 8.3-8.3 8.3 3.7 8.3 8.3-3.7 8.3-8.3 8.3z" fill="#dddfe0"/><path d="m15.1 20v-1.7l3.4-4.5c.2-.2.3-.4.4-.6s.1-.4.1-.6c0-.3-.1-.5-.3-.6-.2-.2-.4-.2-.7-.2s-.6.1-.8.3-.3.5-.4.9h-1.8c.1-1 .4-1.7.9-2.2s1.3-.8 2.1-.8c.9 0 1.7.2 2.2.7s.8 1.1.8 1.9c0 .5-.1.9-.2 1.4-.2.4-.4.9-.7 1.2l-2.5 3.1h3.4v1.7z" fill="#197aff"/></svg>