<svg enable-background="new 0 0 46 46" viewBox="0 0 46 46" xmlns="http://www.w3.org/2000/svg"><path d="m38.7 4.6c-4.6 0-5.2 3.9-5.2 5.2s0 2.6 1.3 2.6 1.3-1.3 1.3-2.6.7-2.6 2.6-2.6c2 0 2.6 1.3 2.6 2.6 0 6.6-7.9 10.5-11.8 10.5h-13.1c-3.9 0-11.8-3.9-11.8-10.5 0-1.3.7-2.6 2.6-2.6s2.6 1.3 2.6 2.6 0 2.6 1.3 2.6 1.3-1.3 1.3-2.6-.7-5.2-5.2-5.2c-3.2 0-5.2 2.7-5.2 5.3 0 7.9 9.2 13.1 14.4 13.1h13.1c5.3 0 14.5-5.2 14.5-13.1 0-2.7-2-5.3-5.3-5.3z" fill="#e6b85c"/><path d="m34.8 4.6c0-1.3 0-2.6-1.3-2.6h-21c-1.3 0-1.3 1.3-1.3 2.6 0 22.3 9.2 19.7 9.2 22.3v2.6c0 2.6-3.9 1.3-3.9 3.9h13.1c0-2.6-3.9-1.3-3.9-3.9v-2.6c-.1-2.6 9.1 0 9.1-22.3z" fill="#fc6"/><path d="m34.8 36.1h-23.6c-.7 0-1.3.6-1.3 1.3v5.2c0 .7.6 1.3 1.3 1.3h23.6c.7 0 1.3-.6 1.3-1.3v-5.2c0-.7-.6-1.3-1.3-1.3z" fill="#666"/><path d="m16.4 38.8h13.1v2.6h-13.1z" fill="#e6e6e6"/><g fill="#e6b85c"><path d="m29.6 33.5h-13.2s-3.9 0-3.9 2.6h21c0-2.6-3.9-2.6-3.9-2.6zm-9.2-3.9h5.2c.7 0 1.3-.6 1.3-1.3s-.6-1.3-1.3-1.3h-5.2c-.7 0-1.3.6-1.3 1.3s.5 1.3 1.3 1.3z"/><circle cx="23" cy="13.8" r="6.9"/></g></svg>