<?xml version="1.0" encoding="utf-8"?>
<!-- Generator: Adobe Illustrator 25.2.1, SVG Export Plug-In . SVG Version: 6.00 Build 0)  -->
<svg version="1.1" id="图层_1" xmlns="http://www.w3.org/2000/svg" xmlns:xlink="http://www.w3.org/1999/xlink" x="0px" y="0px"
	 viewBox="0 0 48 48" style="enable-background:new 0 0 48 48;" xml:space="preserve">
<style type="text/css">
	.st0{fill:#D2E7F7;}
	.st1{fill:#6BB0E8;}
	.st2{fill:#DD051D;}
	.st3{fill:#A60416;}
	.st4{fill:#FCCD1D;}
	.st5{fill:#F9A215;}
</style>
<path class="st0" d="M17.2,22.8l9.1,5.2L15.8,46.2l-2.3-6.5L6.7,41L17.2,22.8z"/>
<path class="st1" d="M13.5,29.1c2.8,2.4,6.3,3.8,9.9,3.9l2.8-4.9l-9.1-5.2L13.5,29.1z"/>
<path class="st0" d="M30.8,22.8L21.7,28l10.5,18.2l2.3-6.5l6.8,1.3L30.8,22.8z"/>
<path class="st1" d="M24.6,33c3.6-0.1,7.1-1.5,9.9-3.8l-3.7-6.3l-9.1,5.2L24.6,33z"/>
<path class="st2" d="M23.7,26.5l-9.2,16l-1-2.8l-2.9,0.5l9.2-16L23.7,26.5z M37.4,40.2l-2.9-0.5l-1,2.8l-9.2-16l3.9-2.2L37.4,40.2z"
	/>
<path class="st3" d="M16,30.9c1.3,0.8,2.8,1.3,4.2,1.7l3.5-6l-3.9-2.2L16,30.9z M28.2,24.3l-3.9,2.2l3.5,6c1.5-0.4,2.9-0.9,4.2-1.7
	L28.2,24.3z"/>
<path class="st4" d="M9.4,16.9c0,8.1,6.5,14.6,14.6,14.6S38.6,25,38.6,16.9S32.1,2.2,24,2.2S9.4,8.8,9.4,16.9z"/>
<path class="st5" d="M13.1,16.9c0,6,4.9,10.9,10.9,10.9s10.9-4.9,10.9-10.9S30,6,24,6S13.1,10.9,13.1,16.9z"/>
<path class="st4" d="M25,11.2l1.1,2c0.2,0.3,0.5,0.5,0.8,0.6l2.3,0.5c0.6,0.1,1,0.7,0.9,1.3c0,0.2-0.1,0.4-0.3,0.6l-1.6,1.7
	c-0.2,0.2-0.3,0.6-0.3,0.9l0.3,2.2c0.1,0.6-0.4,1.2-1.1,1.3c-0.2,0-0.4,0-0.6-0.1l-2.1-1c-0.3-0.1-0.7-0.1-1,0l-2.1,1
	c-0.6,0.3-1.3,0-1.6-0.6c-0.1-0.2-0.1-0.4-0.1-0.6l0.3-2.2c0-0.3-0.1-0.7-0.3-0.9l-1.6-1.7c-0.4-0.5-0.4-1.2,0-1.6
	c0.2-0.2,0.4-0.3,0.6-0.3l2.2-0.4c0.3-0.1,0.6-0.3,0.8-0.6l1.2-2c0.3-0.6,1.1-0.8,1.6-0.4C24.8,10.9,24.9,11.1,25,11.2z"/>
</svg>
